<svg width="427" height="150" viewBox="0 0 427 150" fill="none" xmlns="http://www.w3.org/2000/svg">
<g clip-path="url(#clip0_5295_20105)">
<path d="M166.55 87.55L160.09 91.87C153.33 96.39 149.88 99.99 149.88 105.96V106.25H173.52C174.31 106.25 174.95 106.75 174.95 107.54V113C174.95 113.79 174.3 114.43 173.52 114.43H143.04C142.25 114.43 141.6 113.79 141.6 113V105.96C141.6 98.05 146.56 91.08 152.52 87.13L159.64 82.39C165.17 78.73 166.26 77.57 166.26 73.62C166.26 69.67 163.81 68.3 157.85 68.3C153.61 68.3 147.79 68.88 143.47 69.38H143.33C142.53 69.38 142.03 68.73 142.03 67.94V63.63C142.03 62.91 142.68 62.48 143.39 62.26C147.13 61.25 153.17 60.46 157.84 60.46C170.41 60.46 175.52 64.7 175.52 73.61C175.52 79.57 172.43 83.6 166.54 87.55H166.55Z" fill="#00853F"/>
<path d="M210.46 113.86C209.38 114.15 204.64 115.01 199.1 115.01C190.47 115.01 178.76 110.77 178.76 93.02V82.45C178.76 64.41 190.47 60.46 199.1 60.46C204.63 60.46 209.38 61.32 210.46 61.61C211.39 61.9 212.04 62.26 212.04 63.26V68.08C212.04 68.95 211.68 69.59 210.6 69.59H210.46C207.94 69.37 203.05 69.01 199.24 69.01C193.21 69.01 188.82 72.25 188.82 82.45V93.02C188.82 103.01 193.2 106.46 199.24 106.46C203.05 106.46 207.94 106.1 210.46 105.88H210.6C211.68 105.88 212.04 106.53 212.04 107.39V112.21C212.04 113.22 211.39 113.57 210.46 113.86Z" fill="#00853F"/>
<path d="M259.04 114.43H251.43C250.78 114.43 250.2 113.85 250.06 113.21L246.75 99.55H230.22L226.91 113.21C226.77 113.85 226.19 114.43 225.55 114.43H217.94C217.21 114.43 216.64 113.93 216.64 113.21C216.64 113.13 216.71 112.99 216.71 112.85L228.5 67.78C230.22 61.1 235.4 60.45 238.49 60.45C241.58 60.45 246.76 61.1 248.48 67.78L260.27 112.85C260.27 112.99 260.34 113.14 260.34 113.21C260.34 113.93 259.77 114.43 259.05 114.43H259.04ZM239.64 70.02C239.42 69.15 239.21 68.87 238.49 68.87C237.77 68.87 237.55 69.15 237.34 70.02L232.16 91.37H244.81L239.64 70.02Z" fill="#00853F"/>
<path d="M279.67 114.94C275.93 114.94 272.12 114.73 268.89 114.37C267.95 114.29 267.53 113.86 267.53 113V62.47C267.53 61.75 268.17 61.18 268.89 61.1C271.84 60.89 276.01 60.67 279.67 60.67C289.51 60.67 299.44 62.9 299.44 73.67V74.46C299.44 80.43 296.21 84.52 290.89 86.39C296.42 88.04 299.73 92.21 299.73 98.6V99.83C299.73 112.55 288.73 114.92 279.68 114.92L279.67 114.94ZM296.27 73.68C296.27 64.91 288.08 63.48 279.67 63.48C276.5 63.48 273.13 63.7 270.68 63.77V84.83H283.69C293.76 84.83 296.27 79.87 296.27 74.48V73.69V73.68ZM296.56 98.62C296.56 93.09 293.83 87.91 283.69 87.91H270.68V111.63C273.77 111.85 276.14 112.06 279.67 112.06C288.3 112.06 296.56 110.26 296.56 99.84V98.61V98.62Z" fill="#7FC29F"/>
<path d="M321.65 78.29C318.91 78.29 315.9 78.94 311.65 81.6V113.08C311.65 113.8 311.01 114.44 310.28 114.44H309.85C309.13 114.44 308.48 113.8 308.48 113.08V77.28C308.48 76.49 308.98 75.84 309.77 75.84H310.35C311.14 75.84 311.64 76.48 311.64 77.28V78.79C315.31 76.41 318.11 75.48 321.64 75.48C322.79 75.48 323.57 75.69 323.57 76.56V77.13C323.57 78.06 322.78 78.28 321.64 78.28L321.65 78.29Z" fill="#7FC29F"/>
<path d="M352.12 114.43H351.76C350.97 114.43 350.32 113.79 350.32 113V111.2C346.8 113.14 342.56 114.86 338.11 114.86C332.72 114.86 327.12 112.27 327.12 103.29V102.35C327.12 94.95 331.79 91.28 344.87 91.28H350.41V88.69C350.41 81.21 348.33 78.27 341.35 78.27C336.61 78.27 334.52 78.56 331.14 78.92H330.86C330.21 78.92 329.49 78.63 329.49 77.84V77.41C329.49 76.62 330.07 76.26 331.14 76.12C334.16 75.76 336.61 75.47 341.35 75.47C351.06 75.47 353.57 80.93 353.57 88.7V112.99C353.57 113.78 352.92 114.42 352.13 114.42L352.12 114.43ZM350.39 94.09H344.85C334 94.09 330.26 96.25 330.26 102.36V103.3C330.26 109.98 333.78 112.07 338.1 112.07C342.12 112.07 345.57 110.99 350.39 108.4V94.1V94.09Z" fill="#7FC29F"/>
<path d="M392.36 78.93H388.62C390.06 80.08 392.57 82.6 392.57 87.85V88.42C392.57 95.25 388.97 100.14 377.7 100.14C373.96 100.14 371.59 99.56 368.93 98.48C367.41 99.13 366.48 100.14 366.48 101.57C366.48 102.5 366.91 103.37 368.56 103.8L381.5 107.18C389.19 109.19 393 111.06 393 116.88V117.53C393 124 389.12 128.67 377.76 128.67C366.4 128.67 362.52 124.07 362.52 117.53V116.88C362.52 111.85 365.53 107.97 367.91 106.53L367.4 106.39C364.74 105.6 363.59 103.73 363.59 101.57C363.59 99.85 364.52 97.9 366.61 96.97C364.23 95.03 362.88 92.23 362.88 88.42V87.85C362.88 82.31 365.39 75.84 377.68 75.84H392.34C393.06 75.84 393.71 76.27 393.71 76.99V77.78C393.71 78.57 393.06 78.93 392.34 78.93H392.36ZM389.85 116.88C389.85 112.86 388.34 111.85 380.8 109.91L370.88 107.32C367.72 109.41 365.64 112.07 365.64 116.88V117.53C365.64 122.7 368.58 126.01 377.78 126.01C386.98 126.01 389.85 122.85 389.85 117.53V116.88ZM389.49 87.85C389.49 82.67 387.04 78.58 377.7 78.58C367.78 78.58 366.05 83.25 366.05 87.85V88.42C366.05 92.01 367.85 97.41 377.7 97.41C387.55 97.41 389.49 93.38 389.49 88.42V87.85Z" fill="#7FC29F"/>
<path d="M425.57 114.43H425.21C424.42 114.43 423.77 113.79 423.77 113V111.2C420.25 113.14 416.01 114.86 411.55 114.86C406.16 114.86 400.55 112.27 400.55 103.29V102.35C400.55 94.95 405.22 91.28 418.31 91.28H423.84V88.69C423.84 81.21 421.76 78.27 414.79 78.27C410.05 78.27 407.96 78.56 404.59 78.92H404.3C403.66 78.92 402.93 78.63 402.93 77.84V77.41C402.93 76.62 403.51 76.26 404.59 76.12C407.61 75.76 410.05 75.47 414.79 75.47C424.49 75.47 427.01 80.93 427.01 88.7V112.99C427.01 113.78 426.36 114.42 425.57 114.42V114.43ZM423.84 94.09H418.31C407.46 94.09 403.72 96.25 403.72 102.36V103.3C403.72 109.98 407.24 112.07 411.55 112.07C415.58 112.07 419.03 110.99 423.84 108.4V94.1V94.09Z" fill="#7FC29F"/>
<path d="M82.13 111.8C82.13 113.61 80.66 115.07 78.85 115.07H71.03C69.22 115.07 67.75 113.6 67.75 111.8V3.28C67.75 1.47 69.22 0 71.03 0H78.85C80.67 0 82.13 1.47 82.13 3.28V111.8Z" fill="#00853F"/>
<path d="M57.29 111.8C57.29 113.61 55.82 115.07 54.01 115.07H46.19C44.38 115.07 42.91 113.6 42.91 111.8V72.43C42.91 70.62 44.38 69.14 46.19 69.14H54.01C55.82 69.14 57.29 70.62 57.29 72.43V111.8Z" fill="#FBB032"/>
<path d="M126.34 111.8C126.34 113.61 124.87 115.07 123.06 115.07H115.24C113.43 115.07 111.96 113.6 111.96 111.8V63.72C111.96 61.91 113.43 60.44 115.24 60.44H123.06C124.87 60.44 126.34 61.91 126.34 63.72V111.8Z" fill="#FBB032"/>
<path d="M14.38 84.48C14.38 86.29 12.91 87.76 11.09 87.76H3.29C1.47 87.76 0 86.29 0 84.48V36.4C0 34.58 1.47 33.11 3.29 33.11H11.1C12.92 33.11 14.39 34.58 14.39 36.4V84.48H14.38Z" fill="#00853F"/>
<path d="M104.4 146.31C104.4 148.12 102.93 149.59 101.11 149.59H93.29C91.48 149.59 90.01 148.12 90.01 146.31V63.72C90.01 61.91 91.48 60.44 93.29 60.44H101.11C102.92 60.44 104.4 61.91 104.4 63.72V146.31Z" fill="#00853F"/>
<path d="M34.71 111.8C34.71 113.61 33.24 115.07 31.42 115.07H23.61C21.8 115.07 20.33 113.6 20.33 111.8V72.43C20.33 70.62 21.8 69.14 23.61 69.14H31.42C33.24 69.14 34.71 70.62 34.71 72.43V111.8Z" fill="#FBB032"/>
<path d="M147.11 134.45C146.66 134.5 145.72 134.62 144.13 134.62C141.97 134.62 139.91 133.38 139.91 129.26V126.99C139.91 122.87 141.98 121.63 144.13 121.63C145.71 121.63 146.66 121.75 147.11 121.81C147.26 121.82 147.43 121.93 147.43 122.1V122.31C147.43 122.48 147.35 122.52 147.21 122.52H147.11C146.49 122.45 145.2 122.37 144.13 122.37C142.2 122.37 140.66 123.6 140.66 127V129.27C140.66 132.67 142.2 133.91 144.13 133.91C145.2 133.91 146.49 133.83 147.11 133.75H147.21C147.35 133.75 147.43 133.78 147.43 133.96V134.17C147.43 134.35 147.26 134.45 147.11 134.47V134.45Z" fill="#00853F"/>
<path d="M155.65 130.07H149.83V130.43C149.83 133.32 151.23 133.94 152.95 133.94C153.71 133.94 154.65 133.82 155.5 133.65C155.53 133.65 155.56 133.64 155.6 133.64C155.74 133.64 155.85 133.7 155.85 133.88V134C155.85 134.19 155.78 134.28 155.52 134.33C154.69 134.5 153.71 134.62 152.94 134.62C150.81 134.62 149.06 133.69 149.06 130.44V129.3C149.06 126.92 150.27 125.18 152.54 125.18C154.81 125.18 155.97 126.83 155.97 129.28V129.75C155.97 129.94 155.81 130.08 155.64 130.08L155.65 130.07ZM155.23 129.28C155.23 127.11 154.51 125.86 152.56 125.86C150.61 125.86 149.84 127.25 149.84 129.31V129.39H155.23V129.29V129.28Z" fill="#00853F"/>
<path d="M164.37 134.52H164.25C164.08 134.52 163.94 134.37 163.94 134.19V128.47C163.94 126.5 162.91 125.85 161.61 125.85C160.74 125.85 159.75 126.14 158.89 126.55V134.18C158.89 134.36 158.74 134.51 158.57 134.51H158.46C158.29 134.51 158.14 134.36 158.14 134.18V125.61C158.14 125.42 158.26 125.26 158.45 125.26H158.59C158.78 125.26 158.9 125.42 158.9 125.61V125.88C159.8 125.45 160.78 125.18 161.67 125.18C163.33 125.18 164.71 126.07 164.71 128.47V134.19C164.71 134.37 164.58 134.52 164.38 134.52H164.37Z" fill="#00853F"/>
<path d="M171.13 134.57C170.87 134.61 170.52 134.62 170.23 134.62C169.02 134.62 168.29 134.24 168.29 132.76V125.97H166.59C166.4 125.97 166.26 125.87 166.26 125.69V125.52C166.26 125.35 166.39 125.26 166.59 125.26H168.29V123.49C168.29 123.31 168.39 123.16 168.58 123.16H168.77C168.95 123.16 169.05 123.31 169.05 123.49V125.26H171.1C171.29 125.26 171.42 125.35 171.42 125.52V125.69C171.42 125.86 171.29 125.97 171.1 125.97H169.05V132.76C169.05 133.79 169.48 133.94 170.23 133.94H171.06C171.31 133.94 171.42 134.03 171.42 134.18V134.29C171.42 134.42 171.37 134.53 171.13 134.57Z" fill="#00853F"/>
<path d="M176.47 125.85C175.82 125.85 175.09 126 174.07 126.64V134.18C174.07 134.36 173.92 134.51 173.75 134.51H173.64C173.47 134.51 173.32 134.36 173.32 134.18V125.61C173.32 125.42 173.44 125.26 173.62 125.26H173.77C173.95 125.26 174.07 125.42 174.07 125.61V125.97C174.95 125.4 175.63 125.18 176.47 125.18C176.74 125.18 176.93 125.23 176.93 125.43V125.57C176.93 125.79 176.74 125.85 176.47 125.85Z" fill="#00853F"/>
<path d="M181.5 134.62C179.14 134.62 177.95 133.11 177.95 130.51V129.31C177.95 126.71 179.14 125.19 181.5 125.19C183.86 125.19 185.04 126.7 185.04 129.31V130.51C185.04 133.11 183.85 134.62 181.5 134.62ZM184.29 129.3C184.29 127.18 183.51 125.85 181.5 125.85C179.49 125.85 178.71 127.17 178.71 129.3V130.5C178.71 132.62 179.48 133.94 181.5 133.94C183.52 133.94 184.29 132.62 184.29 130.5V129.3Z" fill="#00853F"/>
<path d="M197.93 134.45C197.48 134.5 196.53 134.62 194.95 134.62C192.8 134.62 190.73 133.38 190.73 129.26V126.99C190.73 122.87 192.79 121.63 194.95 121.63C196.53 121.63 197.48 121.75 197.93 121.81C198.09 121.82 198.26 121.93 198.26 122.1V122.31C198.26 122.48 198.17 122.52 198.03 122.52H197.93C197.32 122.45 196.02 122.37 194.95 122.37C193.02 122.37 191.49 123.6 191.49 127V129.27C191.49 132.67 193.02 133.91 194.95 133.91C196.02 133.91 197.31 133.83 197.93 133.75H198.03C198.17 133.75 198.26 133.78 198.26 133.96V134.17C198.26 134.35 198.09 134.45 197.93 134.47V134.45Z" fill="#00853F"/>
<path d="M200.79 134.52H200.62C200.45 134.52 200.33 134.37 200.33 134.19V122.05C200.33 121.87 200.45 121.72 200.62 121.72H200.79C200.97 121.72 201.09 121.87 201.09 122.05V134.19C201.09 134.37 200.97 134.52 200.79 134.52Z" fill="#00853F"/>
<path d="M205.98 121.37L204.13 123.58C203.98 123.76 203.93 123.87 203.75 123.87H203.37C203.27 123.87 203.22 123.82 203.22 123.75C203.22 123.7 203.23 123.63 203.29 123.58L205.01 121.37C205.16 121.19 205.23 121.12 205.4 121.12H205.85C205.97 121.12 206.04 121.15 206.04 121.24C206.04 121.27 206.03 121.33 205.98 121.37ZM204.28 134.52H204.18C204 134.52 203.85 134.37 203.85 134.19V125.6C203.85 125.43 204 125.27 204.18 125.27H204.28C204.45 125.27 204.6 125.43 204.6 125.6V134.19C204.6 134.37 204.44 134.52 204.28 134.52Z" fill="#00853F"/>
<path d="M213.42 134.52H213.3C213.13 134.52 212.99 134.37 212.99 134.19V128.47C212.99 126.5 211.95 125.85 210.66 125.85C209.78 125.85 208.8 126.14 207.94 126.55V134.18C207.94 134.36 207.79 134.51 207.61 134.51H207.51C207.34 134.51 207.18 134.36 207.18 134.18V125.61C207.18 125.42 207.3 125.26 207.49 125.26H207.63C207.81 125.26 207.94 125.42 207.94 125.61V125.88C208.84 125.45 209.82 125.18 210.72 125.18C212.37 125.18 213.75 126.07 213.75 128.47V134.19C213.75 134.37 213.62 134.52 213.42 134.52Z" fill="#00853F"/>
<path d="M216.77 123.56H216.67C216.5 123.56 216.34 123.43 216.34 123.23V121.96C216.34 121.79 216.5 121.63 216.67 121.63H216.77C216.94 121.63 217.09 121.79 217.09 121.96V123.23C217.09 123.43 216.94 123.56 216.77 123.56ZM216.77 134.52H216.67C216.5 134.52 216.34 134.37 216.34 134.19V125.6C216.34 125.43 216.5 125.27 216.67 125.27H216.77C216.94 125.27 217.09 125.43 217.09 125.6V134.19C217.09 134.37 216.94 134.52 216.77 134.52Z" fill="#00853F"/>
<path d="M224.91 134.46C224.19 134.54 223.38 134.61 222.82 134.61C220.36 134.61 219.41 132.7 219.41 130.44V129.29C219.41 127 220.36 125.17 222.82 125.17C223.37 125.17 224.19 125.23 224.91 125.32C225.17 125.36 225.24 125.44 225.24 125.63V125.75C225.24 125.92 225.12 125.98 224.96 125.98H224.87C224.06 125.88 223.39 125.83 222.82 125.83C220.86 125.83 220.17 127.18 220.17 129.28V130.43C220.17 132.51 220.86 133.93 222.82 133.93C223.39 133.93 224.07 133.88 224.87 133.78H224.96C225.11 133.78 225.24 133.85 225.24 134.03V134.15C225.24 134.34 225.17 134.43 224.91 134.46Z" fill="#00853F"/>
<path d="M229.98 134.62C227.62 134.62 226.43 133.11 226.43 130.51V129.31C226.43 126.71 227.62 125.19 229.98 125.19C232.34 125.19 233.53 126.7 233.53 129.31V130.51C233.53 133.11 232.34 134.62 229.98 134.62ZM232.77 129.3C232.77 127.18 231.99 125.85 229.97 125.85C227.95 125.85 227.18 127.17 227.18 129.3V130.5C227.18 132.62 227.95 133.94 229.97 133.94C231.99 133.94 232.77 132.62 232.77 130.5V129.3Z" fill="#00853F"/>
<path d="M247.91 134.57H247.71C247.57 134.57 247.47 134.47 247.43 134.35L245.98 129.68H241.01L239.6 134.35C239.57 134.46 239.45 134.57 239.33 134.57H239.11C238.94 134.57 238.85 134.45 238.85 134.29C238.85 134.24 238.85 134.18 238.86 134.14L242.39 122.47C242.55 121.96 242.94 121.63 243.51 121.63C244.08 121.63 244.46 121.94 244.62 122.46L248.15 134.14C248.15 134.14 248.18 134.26 248.18 134.31C248.18 134.47 248.1 134.57 247.9 134.57H247.91ZM243.92 122.66C243.86 122.49 243.76 122.32 243.52 122.32C243.27 122.32 243.18 122.46 243.12 122.65L241.23 128.92H245.79L243.92 122.66Z" fill="#00853F"/>
<path d="M254.95 134.46C254.22 134.54 253.41 134.61 252.86 134.61C250.4 134.61 249.45 132.7 249.45 130.44V129.29C249.45 127 250.4 125.17 252.86 125.17C253.41 125.17 254.22 125.23 254.95 125.32C255.2 125.36 255.27 125.44 255.27 125.63V125.75C255.27 125.92 255.15 125.98 254.99 125.98H254.9C254.09 125.88 253.42 125.83 252.86 125.83C250.9 125.83 250.2 127.18 250.2 129.28V130.43C250.2 132.51 250.89 133.93 252.86 133.93C253.43 133.93 254.09 133.88 254.9 133.78H254.99C255.14 133.78 255.27 133.85 255.27 134.03V134.15C255.27 134.34 255.2 134.43 254.95 134.46Z" fill="#00853F"/>
<path d="M262.89 134.52H262.8C262.61 134.52 262.46 134.37 262.46 134.18V133.75C261.62 134.22 260.6 134.63 259.53 134.63C258.24 134.63 256.89 134.01 256.89 131.86V131.64C256.89 129.86 258.01 128.99 261.15 128.99H262.47V128.37C262.47 126.58 261.97 125.88 260.3 125.88C259.17 125.88 258.67 125.95 257.86 126.03H257.79C257.63 126.03 257.46 125.96 257.46 125.78V125.68C257.46 125.49 257.6 125.4 257.86 125.37C258.58 125.28 259.17 125.22 260.3 125.22C262.63 125.22 263.23 126.53 263.23 128.39V134.21C263.23 134.4 263.08 134.55 262.89 134.55V134.52ZM262.47 129.64H261.15C258.55 129.64 257.65 130.15 257.65 131.62V131.84C257.65 133.45 258.49 133.94 259.53 133.94C260.5 133.94 261.32 133.68 262.48 133.06V129.64H262.47Z" fill="#00853F"/>
<path d="M271.65 134.29C270.9 134.45 269.74 134.61 268.76 134.61C266.38 134.61 265.39 132.91 265.39 130.43V129.29C265.39 126.56 266.53 125.17 268.76 125.17C269.43 125.17 270.46 125.27 271.16 125.42V122.03C271.16 121.85 271.28 121.7 271.45 121.7H271.62C271.79 121.7 271.91 121.85 271.91 122.03V133.95C271.91 134.16 271.86 134.23 271.65 134.28V134.29ZM271.16 126.07C270.51 125.94 269.44 125.85 268.76 125.85C266.87 125.85 266.14 127.02 266.14 129.3V130.44C266.14 132.66 266.83 133.95 268.76 133.95C269.59 133.95 270.54 133.83 271.16 133.72V126.07Z" fill="#00853F"/>
<path d="M280.65 130.07H274.83V130.43C274.83 133.32 276.23 133.94 277.95 133.94C278.71 133.94 279.65 133.82 280.5 133.65C280.53 133.65 280.57 133.64 280.61 133.64C280.75 133.64 280.86 133.7 280.86 133.88V134C280.86 134.19 280.79 134.28 280.53 134.33C279.7 134.5 278.72 134.62 277.95 134.62C275.81 134.62 274.07 133.69 274.07 130.44V129.3C274.07 126.92 275.28 125.18 277.55 125.18C279.82 125.18 280.98 126.83 280.98 129.28V129.75C280.98 129.94 280.83 130.08 280.66 130.08L280.65 130.07ZM280.22 129.28C280.22 127.11 279.49 125.86 277.55 125.86C275.61 125.86 274.83 127.25 274.83 129.31V129.39H280.22V129.29V129.28ZM279.63 121.37L277.79 123.58C277.64 123.76 277.58 123.87 277.42 123.87H277.04C276.94 123.87 276.89 123.82 276.89 123.75C276.89 123.7 276.91 123.63 276.96 123.58L278.68 121.37C278.83 121.19 278.9 121.12 279.07 121.12H279.52C279.64 121.12 279.71 121.15 279.71 121.24C279.71 121.27 279.69 121.33 279.64 121.37H279.63Z" fill="#00853F"/>
<path d="M293.28 134.52H293.11C292.92 134.52 292.82 134.37 292.82 134.19V128.02C292.82 126.38 292.06 125.85 290.8 125.85C290.04 125.85 289.18 126.09 288.47 126.43C288.63 126.83 288.73 127.33 288.73 127.94V134.17C288.73 134.35 288.66 134.5 288.47 134.5H288.21C288.04 134.5 287.97 134.35 287.97 134.17V127.94C287.97 126.34 287.26 125.84 286.35 125.84C285.59 125.84 284.68 126.18 283.89 126.56V134.17C283.89 134.35 283.8 134.5 283.63 134.5H283.39C283.22 134.5 283.14 134.35 283.14 134.17V125.6C283.14 125.41 283.26 125.25 283.45 125.25H283.59C283.78 125.25 283.9 125.41 283.9 125.6V125.91C284.6 125.56 285.6 125.17 286.51 125.17C287.13 125.17 287.72 125.36 288.14 125.87C289 125.46 290.01 125.17 290.92 125.17C292.37 125.17 293.57 125.96 293.57 128.01V134.18C293.57 134.36 293.47 134.51 293.28 134.51V134.52Z" fill="#00853F"/>
<path d="M296.58 123.56H296.48C296.31 123.56 296.15 123.43 296.15 123.23V121.96C296.15 121.79 296.3 121.63 296.48 121.63H296.58C296.75 121.63 296.91 121.79 296.91 121.96V123.23C296.91 123.43 296.75 123.56 296.58 123.56ZM296.58 134.52H296.48C296.31 134.52 296.15 134.37 296.15 134.19V125.6C296.15 125.43 296.3 125.27 296.48 125.27H296.58C296.75 125.27 296.91 125.43 296.91 125.6V134.19C296.91 134.37 296.75 134.52 296.58 134.52Z" fill="#00853F"/>
<path d="M304.74 134.46C304.02 134.54 303.2 134.61 302.66 134.61C300.19 134.61 299.25 132.7 299.25 130.44V129.29C299.25 127 300.19 125.17 302.66 125.17C303.21 125.17 304.02 125.23 304.74 125.32C305 125.36 305.07 125.44 305.07 125.63V125.75C305.07 125.92 304.95 125.98 304.8 125.98H304.72C303.91 125.88 303.24 125.83 302.67 125.83C300.71 125.83 300.02 127.18 300.02 129.28V130.43C300.02 132.51 300.71 133.93 302.67 133.93C303.24 133.93 303.91 133.88 304.72 133.78H304.8C304.95 133.78 305.07 133.85 305.07 134.03V134.15C305.07 134.34 305 134.43 304.74 134.46Z" fill="#00853F"/>
<path d="M309.81 134.62C307.45 134.62 306.26 133.11 306.26 130.51V129.31C306.26 126.71 307.45 125.19 309.81 125.19C312.17 125.19 313.35 126.7 313.35 129.31V130.51C313.35 133.11 312.16 134.62 309.81 134.62ZM312.59 129.3C312.59 127.18 311.81 125.85 309.8 125.85C307.79 125.85 307 127.17 307 129.3V130.5C307 132.62 307.78 133.94 309.8 133.94C311.82 133.94 312.59 132.62 312.59 130.5V129.3Z" fill="#00853F"/>
</g>
<defs>
<clipPath id="clip0_5295_20105">
<rect width="427" height="149.6" fill="white"/>
</clipPath>
</defs>
</svg>
